<svg id="Layer_1" data-name="Layer 1" xmlns="http://www.w3.org/2000/svg" viewBox="0 0 1920 1080"><defs><style>.cls-1{fill:#e9d787;}</style></defs><path class="cls-1" d="M970,479.83a54.92,54.92,0,0,1,9.21,2.13L1135.54,0H1041Z"/><path class="cls-1" d="M929.84,486.14a56.16,56.16,0,0,1,8.73-3.87L772.54,0H665.47Z"/><path class="cls-1" d="M959.36,479.07V0H867.91l79.74,480A70.67,70.67,0,0,1,959.36,479.07Z"/><path class="cls-1" d="M896.23,536.34a59.94,59.94,0,0,1,1.54-10.06L0,303.2V466.83Z"/><path class="cls-1" d="M1763.31,0H1530.66L1005.42,498.86a71.86,71.86,0,0,1,7.07,8.78Z"/><path class="cls-1" d="M921,492,536,0H367.49L912.54,499.83A70.77,70.77,0,0,1,921,492Z"/><path class="cls-1" d="M987.93,485.63a63.21,63.21,0,0,1,9,5.68L1367.45,0h-126.4Z"/><path class="cls-1" d="M0,125.4,900.79,517.55a61.84,61.84,0,0,1,4.81-8.88L123.77,0H2.23L0,4Z"/><path class="cls-1" d="M905.91,576.67a60.55,60.55,0,0,1-4.9-8.89v0L0,969.55V1080H146.78Z"/><path class="cls-1" d="M898,559.07a59.68,59.68,0,0,1-1.66-9.93L0,626.59V790.71Z"/><path class="cls-1" d="M1022.38,535.09c.21,2.34.34,4.79.34,7.33a51.2,51.2,0,0,1-.19,5.45L1920,609.52v-160Z"/><path class="cls-1" d="M998.31,592.45v0a64.62,64.62,0,0,1-9,6L1256.9,1080h129.54Z"/><path class="cls-1" d="M1013.44,575.7v0a67.81,67.81,0,0,1-6.77,8.88L1556.81,1080h247Z"/><path class="cls-1" d="M1920,284.66V104.36L1017.5,516.61a55.81,55.81,0,0,1,3.07,8.7Z"/><path class="cls-1" d="M1920,773.23,1021,558.1h0a54.93,54.93,0,0,1-2.87,8.75L1920,949.94Z"/><path class="cls-1" d="M980.61,602.43v0a54.93,54.93,0,0,1-9,2.36L1054.92,1080h94.92Z"/><path class="cls-1" d="M921.36,593.2a71,71,0,0,1-8.49-7.68v-.06L382.91,1080H547.36Z"/><path class="cls-1" d="M939,602.78a58.22,58.22,0,0,1-8.7-3.75L674.12,1080H779.46Z"/><path class="cls-1" d="M930.27,599h0l0-.06Z"/><path class="cls-1" d="M960.13,605.77h-.75a72.41,72.41,0,0,1-11.2-.81v0L873.59,1080h90.66Z"/></svg>